<?xml version="1.0" standalone="no"?>
<!DOCTYPE svg PUBLIC "-//W3C//DTD SVG 20010904//EN"
 "http://www.w3.org/TR/2001/REC-SVG-20010904/DTD/svg10.dtd">
<svg version="1.0" xmlns="http://www.w3.org/2000/svg"
 width="1354.000000pt" height="204.000000pt" viewBox="0 0 1354.000000 204.000000"
 preserveAspectRatio="xMidYMid meet">

<g transform="translate(0.000000,204.000000) scale(0.100000,-0.100000)"
fill="#000000" stroke="none">
<path d="M3115 1701 c-82 -3 -156 -10 -162 -14 -7 -5 -13 -23 -13 -40 0 -18
-7 -59 -15 -92 -8 -33 -19 -93 -25 -134 -5 -41 -16 -97 -24 -125 -8 -28 -19
-85 -25 -126 -18 -121 -31 -202 -43 -250 -5 -25 -18 -90 -28 -145 -44 -246
-40 -232 -66 -244 -36 -16 -288 -15 -302 2 -8 9 -7 32 4 82 8 39 20 97 25 130
6 33 16 94 24 135 7 41 17 95 20 120 4 25 13 68 20 95 8 28 18 82 24 120 13
95 28 171 57 295 28 123 29 138 8 168 -15 21 -21 22 -180 22 -205 0 -223 -7
-224 -85 0 -22 -9 -77 -20 -123 -11 -46 -20 -97 -20 -114 0 -17 -9 -70 -19
-117 -11 -47 -29 -142 -41 -211 -12 -69 -28 -150 -35 -180 -7 -30 -16 -82 -20
-115 -4 -33 -13 -87 -21 -120 -7 -33 -14 -106 -14 -162 0 -93 2 -104 23 -123
53 -51 49 -51 510 -52 392 -2 436 -1 470 15 45 21 117 93 117 117 0 10 9 46
20 80 11 34 20 82 20 105 0 23 6 60 14 81 7 22 16 66 20 99 6 59 18 118 51
260 9 39 22 115 30 170 22 170 36 247 56 322 27 104 26 129 -11 148 -16 8 -35
14 -42 13 -7 -1 -80 -4 -163 -7z"/>
<path d="M3967 1696 c-21 -8 -41 -17 -44 -20 -12 -12 -25 -178 -15 -188 7 -7
97 -11 258 -12 157 -1 249 -5 251 -11 2 -6 -19 -37 -47 -70 -27 -33 -50 -64
-50 -69 0 -4 -26 -41 -57 -81 -32 -40 -65 -83 -73 -95 -8 -13 -32 -45 -52 -71
-21 -27 -38 -51 -38 -54 0 -3 -34 -48 -75 -99 -41 -51 -75 -97 -75 -101 0 -4
-18 -29 -40 -55 -22 -26 -40 -53 -40 -59 0 -6 -4 -11 -9 -11 -8 0 -35 -34 -81
-100 -8 -12 -25 -36 -37 -53 -18 -24 -23 -44 -23 -93 0 -68 16 -98 73 -132 29
-18 57 -21 307 -26 329 -8 539 2 551 24 4 8 13 48 20 89 12 72 12 74 -10 92
-21 17 -44 19 -241 19 -265 0 -272 2 -227 53 12 14 47 60 77 102 30 42 89 122
130 176 185 246 223 297 260 349 21 30 46 64 54 75 152 200 166 223 166 277 0
56 -31 102 -88 130 -46 23 -52 23 -417 25 -296 2 -378 0 -408 -11z"/>
<path d="M5535 1703 c-74 -14 -77 -20 -89 -143 -9 -89 -21 -85 261 -85 220 0
248 -2 251 -16 2 -9 -10 -27 -25 -40 -15 -14 -41 -44 -58 -69 -34 -52 -32 -48
-85 -117 -22 -29 -40 -55 -40 -58 0 -7 -115 -152 -134 -170 -6 -6 -15 -18 -21
-27 -5 -9 -25 -37 -42 -62 -18 -26 -33 -49 -33 -52 0 -2 -9 -14 -20 -26 -40
-45 -50 -58 -50 -63 0 -3 -34 -48 -75 -100 -41 -51 -75 -97 -75 -100 0 -3 -10
-19 -22 -36 -34 -46 -31 -136 7 -181 51 -62 42 -61 472 -63 268 -1 400 2 415
9 17 9 25 29 40 96 l18 85 -22 19 c-22 17 -39 18 -265 14 -235 -5 -243 -5
-243 14 0 10 10 29 23 41 37 36 137 169 137 183 0 3 6 11 13 19 15 16 39 47
117 150 33 44 72 95 87 114 27 34 57 76 79 113 6 10 26 36 45 57 19 21 41 49
49 61 8 12 26 37 40 55 14 18 32 43 40 55 8 12 32 44 53 72 30 41 37 58 37 96
0 86 -56 136 -169 151 -62 9 -673 11 -716 4z"/>
<path d="M7204 1699 c-100 -9 -154 -43 -197 -124 -23 -42 -57 -186 -57 -238 0
-24 -9 -77 -20 -118 -11 -41 -20 -92 -20 -115 0 -22 -6 -63 -14 -90 -8 -27
-20 -87 -26 -132 -6 -46 -15 -94 -19 -105 -5 -12 -12 -51 -16 -87 -4 -35 -14
-82 -21 -104 -8 -21 -14 -53 -14 -70 0 -17 -10 -71 -22 -119 -19 -76 -20 -89
-8 -97 19 -12 341 -13 372 -1 30 11 54 91 68 227 17 167 29 176 212 172 106
-3 130 -6 145 -21 17 -16 17 -20 0 -66 -9 -27 -17 -65 -17 -84 0 -20 -7 -62
-16 -94 -23 -81 -28 -120 -16 -127 6 -3 88 -8 183 -11 190 -5 219 1 219 50 0
13 9 61 20 107 11 46 20 97 20 113 0 17 9 59 20 93 11 35 20 85 20 111 0 26 7
73 15 104 8 32 15 73 15 90 0 18 7 60 16 92 9 33 22 101 29 150 8 50 19 122
25 160 6 39 20 108 30 155 24 104 25 153 4 171 -13 11 -101 13 -438 14 -231 0
-453 -3 -492 -6z m494 -228 c11 -7 12 -24 4 -92 -6 -46 -16 -98 -22 -114 -7
-17 -16 -71 -20 -121 -11 -113 -38 -211 -59 -219 -27 -11 -285 -14 -303 -4
-22 12 -22 23 1 95 10 33 21 93 25 134 3 41 13 100 21 130 8 30 15 72 15 92 0
28 8 45 34 72 l33 36 129 0 c71 0 135 -4 142 -9z"/>
<path d="M9544 1702 c-42 -7 -74 -26 -79 -46 -2 -11 -6 -52 -10 -90 -3 -38
-12 -96 -20 -130 -8 -33 -15 -83 -15 -109 0 -26 -6 -63 -14 -81 -7 -18 -17
-57 -21 -87 -4 -30 -13 -79 -20 -109 -7 -30 -15 -82 -19 -115 -3 -33 -12 -80
-21 -104 -8 -24 -15 -67 -15 -95 0 -28 -10 -84 -21 -124 -21 -68 -24 -73 -58
-83 -40 -12 -275 -9 -287 4 -4 4 -2 38 5 75 6 37 21 117 32 177 12 61 24 137
29 170 4 33 14 89 23 125 23 94 37 173 48 270 5 47 14 96 20 110 6 14 17 68
24 120 12 85 11 96 -3 108 -20 16 -334 17 -364 1 -29 -15 -48 -70 -48 -136 0
-32 -9 -94 -20 -138 -11 -44 -20 -92 -20 -107 0 -15 -5 -39 -11 -54 -5 -16
-16 -71 -24 -124 -17 -116 -31 -189 -56 -298 -10 -45 -19 -104 -19 -131 0 -26
-9 -81 -20 -122 -37 -142 -20 -218 60 -259 36 -18 65 -20 472 -22 l433 -3 45
27 c67 39 130 134 130 197 0 14 9 62 19 106 10 44 21 109 25 145 3 36 13 87
21 114 8 27 15 63 15 80 0 17 8 72 19 121 28 129 41 200 51 280 5 39 15 88 23
110 8 22 18 77 22 121 6 66 4 82 -9 93 -11 9 -58 13 -159 15 -79 0 -152 0
-163 -2z"/>
<path d="M10500 1697 c-37 -9 -47 -27 -64 -119 -20 -102 -18 -103 135 -103 96
0 122 -3 129 -15 13 -21 2 -152 -21 -236 -10 -38 -19 -86 -19 -105 0 -19 -5
-50 -11 -69 -12 -42 -46 -217 -60 -315 -6 -38 -16 -95 -24 -125 -7 -30 -19
-95 -26 -145 -6 -49 -16 -100 -22 -113 -8 -18 -7 -26 6 -39 13 -13 45 -17 180
-20 90 -2 175 1 188 6 21 7 28 23 47 98 12 50 22 110 22 134 0 24 9 77 20 118
11 41 20 89 20 106 0 17 6 54 14 81 8 27 17 76 20 109 4 32 13 86 21 120 19
77 55 311 55 352 0 56 17 63 153 63 67 0 132 3 145 6 49 13 85 173 46 205 -14
11 -102 14 -470 14 -250 0 -467 -3 -484 -8z"/>
<path d="M12208 1699 c-117 -18 -184 -101 -206 -254 -18 -123 -41 -253 -51
-292 -6 -21 -11 -52 -11 -69 0 -17 -9 -64 -20 -105 -11 -41 -20 -92 -20 -114
0 -22 -9 -73 -20 -114 -11 -41 -20 -96 -20 -121 0 -26 -9 -73 -21 -106 -24
-71 -20 -111 17 -159 53 -70 41 -69 519 -69 384 0 434 1 467 17 48 22 90 63
116 112 24 47 58 194 66 282 5 60 25 184 47 288 5 28 17 84 25 125 8 41 19 88
24 104 6 16 10 43 10 60 0 17 12 78 26 136 39 158 20 224 -78 266 -39 17 -80
18 -433 19 -214 1 -411 -2 -437 -6z m511 -236 c20 -18 20 -20 7 -138 -8 -66
-17 -127 -20 -135 -6 -14 -15 -65 -52 -275 -8 -49 -22 -109 -30 -133 -8 -23
-14 -66 -14 -95 0 -73 -16 -123 -48 -147 -25 -20 -37 -21 -159 -18 -83 2 -136
7 -144 15 -8 8 -9 24 -1 60 24 107 46 232 52 303 4 41 12 86 17 100 6 14 14
50 17 80 4 30 13 78 21 105 7 28 16 75 20 105 8 65 42 172 58 182 7 4 67 8
133 8 102 0 125 -3 143 -17z"/>
<path d="M603 1685 c-16 -11 -23 -29 -28 -73 -3 -31 -12 -79 -20 -107 -7 -27
-17 -77 -20 -110 -4 -33 -13 -82 -20 -110 -24 -93 -45 -190 -55 -260 -5 -38
-16 -101 -25 -140 -8 -38 -15 -85 -15 -103 0 -18 -6 -63 -14 -100 -45 -216
-48 -245 -33 -282 9 -19 30 -48 47 -65 l31 -30 197 -6 c296 -9 720 -3 736 10
8 6 16 35 20 64 3 28 9 68 12 88 5 33 3 37 -28 51 -28 12 -76 14 -298 8 -270
-6 -318 -2 -313 30 8 46 26 132 39 176 8 28 14 62 14 75 0 22 8 74 60 364 11
61 20 118 20 128 0 20 33 174 54 252 24 86 28 125 15 141 -17 21 -345 20 -376
-1z"/>
</g>
</svg>
