<svg xmlns="http://www.w3.org/2000/svg" width="41" height="20" viewBox="0 0 41 20">
  <g id="_02_check" data-name="02_check" transform="translate(-8 -561)">
    <g id="Path_14590" data-name="Path 14590" transform="translate(8 561)" fill="#404040">
      <path d="M 31 19.5 L 10 19.5 C 4.761680126190186 19.5 0.5 15.23832035064697 0.5 10 C 0.5 4.761680126190186 4.761680126190186 0.5 10 0.5 L 31 0.5 C 36.23831939697266 0.5 40.5 4.761680126190186 40.5 10 C 40.5 15.23832035064697 36.23831939697266 19.5 31 19.5 Z" stroke="none"/>
      <path d="M 10 1 C 5.037380218505859 1 1 5.037380218505859 1 10 C 1 14.96261978149414 5.037380218505859 19 10 19 L 31 19 C 35.96261978149414 19 40 14.96261978149414 40 10 C 40 5.037380218505859 35.96261978149414 1 31 1 L 10 1 M 10 0 L 31 0 C 36.52285003662109 0 41 4.477149963378906 41 10 C 41 15.52285003662109 36.52285003662109 20 31 20 L 10 20 C 4.477149963378906 20 0 15.52285003662109 0 10 C 0 4.477149963378906 4.477149963378906 0 10 0 Z" stroke="none" fill="#404040"/>
    </g>
    <g id="Radio_Button" data-name="Radio Button" transform="translate(31 563)">
      <circle id="Radio_Button-2" data-name="Radio Button" cx="8" cy="8" r="8" fill="#fff"/>
    </g>
  </g>
</svg>
