<svg xmlns="http://www.w3.org/2000/svg" xmlns:xlink="http://www.w3.org/1999/xlink" width="19.442" height="21.404" viewBox="0 0 19.442 21.404">
  <defs>
    <clipPath id="clip-path">
      <rect id="Rettangolo_8857" data-name="Rettangolo 8857" width="19.442" height="21.404" transform="translate(0 0)"/>
    </clipPath>
  </defs>
  <g id="Bagagli" transform="translate(-0.002 -0.003)">
    <g id="Raggruppa_11460" data-name="Raggruppa 11460" transform="translate(0.002 0.003)" clip-path="url(#clip-path)">
      <path id="Tracciato_14834" data-name="Tracciato 14834" d="M18.894,58.882c.015.017.031.036.047.051,0-.016,0-.033-.005-.051Z" transform="translate(-12.173 -37.934)"/>
      <path id="Tracciato_14835" data-name="Tracciato 14835" d="M32.629,35.139A1.263,1.263,0,0,0,31.445,33.8a1.283,1.283,0,0,0-.157,0H28.7c0-.228.01-.423,0-.617a.6.6,0,0,0-.591-.6h-.014q-1.543-.007-3.087,0a.589.589,0,0,0-.61.567c0,.015,0,.03,0,.045,0,.194,0,.387,0,.607H21.818a1.238,1.238,0,0,0-1.344,1.121,1.219,1.219,0,0,0,0,.2q-.006,2.945,0,5.891a1.527,1.527,0,0,0,.039.379,1.249,1.249,0,0,0,.273.521h.038a.372.372,0,0,0,0,.046,1.2,1.2,0,0,0,.589.32,1.559,1.559,0,0,0,.352.039q4.529,0,9.059,0a4.82,4.82,0,0,0,.785-.024,1.245,1.245,0,0,0,1.02-1.309V35.141m-4.35-1.348H24.8c0-.2,0-.391,0-.579a.206.206,0,0,1,.191-.22.2.2,0,0,1,.041,0h3.021a.194.194,0,0,1,.218.166.2.2,0,0,1,0,.041c0,.193,0,.386,0,.591" transform="translate(-13.187 -20.99)"/>
      <path id="Tracciato_14836" data-name="Tracciato 14836" d="M8.675,26.739A1.572,1.572,0,0,0,7.14,25.184q-2.78-.027-5.562,0A1.581,1.581,0,0,0,0,26.771c0,.008,0,.016,0,.024q-.011,4.377,0,8.756a1.36,1.36,0,0,0,.356.963,8.181,8.181,0,0,0,.763.635c-.047.251.04.425.27.46.348.053.5-.071.541-.446H6.106a1.98,1.98,0,0,1-.176-.449,2.179,2.179,0,0,1-.059-.545v-.019c0-2.131-.005-4.335,0-6.5a1.88,1.88,0,0,1,2-1.969h.814q0-.469-.006-.938" transform="translate(-0.001 -16.216)"/>
      <path id="Tracciato_14837" data-name="Tracciato 14837" d="M4.433,8.778h.342V8.535c0-1.526,0-4.785,0-6.311a1.423,1.423,0,0,1,.477-1.092A1.231,1.231,0,0,1,6.285.8,16.292,16.292,0,0,0,8.092.818,1.786,1.786,0,0,1,8.523.8,1.432,1.432,0,0,1,9.594,2.222c0,1.519,0,4.77,0,6.288v.26h.353V8.516c0-1.481,0-4.7,0-6.177A1.846,1.846,0,0,0,8.635.453.256.256,0,0,1,8.492.316.413.413,0,0,0,8.061,0H6.319a.43.43,0,0,0-.441.307A.269.269,0,0,1,5.739.45,1.858,1.858,0,0,0,4.42,2.359c0,1.482,0,4.7,0,6.177,0,.079.007.158.011.243" transform="translate(-2.845 -0.001)"/>
      <path id="Tracciato_14838" data-name="Tracciato 14838" d="M6.065,23.662h4.358c-.969-.631-3.656-.646-4.358,0" transform="translate(-3.908 -14.936)"/>
    </g>
  </g>
</svg>
