<svg xmlns="http://www.w3.org/2000/svg" width="14.05" height="14.637" viewBox="0 0 14.05 14.637">
  <g id="Calendario_lavori_Progr" transform="translate(0 0)">
    <path id="Path_14329" data-name="Path 14329" d="M402.7,75.5a.708.708,0,0,1,.349.7v2.007a.584.584,0,0,1-.524.611c-.349,0-.524-.262-.524-.611V76.2a.708.708,0,0,1,.349-.7" transform="translate(-399.817 -75.5)" fill="#c03"/>
    <path id="Path_14330" data-name="Path 14330" d="M412.7,75.5a.708.708,0,0,1,.349.7v2.007a.584.584,0,0,1-.524.611c-.349,0-.524-.262-.524-.611V76.2a.708.708,0,0,1,.349-.7" transform="translate(-401.09 -75.5)" fill="#c03"/>
    <path id="Path_14331" data-name="Path 14331" d="M399.5,78.947l.262-.524a1.212,1.212,0,0,1,.873-.436h.436V78.6a1.061,1.061,0,0,0,1.047,1.047,1.139,1.139,0,0,0,1.135-1.047v-.611H409.8V78.6a.949.949,0,0,0,.611.873.928.928,0,0,0,1.047-.087,1.074,1.074,0,0,0,.436-.873V77.9a1.669,1.669,0,0,1,1.309.349,1.568,1.568,0,0,1,.349.785v4.276H412.5V81.129H400.548v7.418c0,.262,0,.262.262.262h6.283v1.047h-6.37a1.232,1.232,0,0,1-1.222-.873V78.947Z" transform="translate(-399.5 -75.219)" fill="#c03"/>
    <path id="Path_14333" data-name="Path 14333" d="M404.182,85.182H402V83h2.182Z" transform="translate(-399.817 -75.959)" fill="#c03"/>
    <path id="Path_14334" data-name="Path 14334" d="M405.8,83h2.181v2.182H405.8Z" transform="translate(-399.912 -75.959)" fill="#c03"/>
    <path id="Path_14335" data-name="Path 14335" d="M411.682,83v2.182H409.5V83Z" transform="translate(-400.003 -72.549)" fill="#c03"/>
    <path id="Path_14446" data-name="Path 14446" d="M411.682,83v2.182H409.5V83Z" transform="translate(-400.003 -75.959)" fill="#c03"/>
    <path id="Path_14336" data-name="Path 14336" d="M402,88.982V86.8h2.182v2.182Z" transform="translate(-399.817 -76.35)" fill="#c03"/>
    <path id="Path_14337" data-name="Path 14337" d="M407.982,86.8v2.182H405.8V86.8Z" transform="translate(-399.912 -76.35)" fill="#c03"/>
    <path id="Path_14445" data-name="Path 14445" d="M413.55,78.947l-.262-.524a1.213,1.213,0,0,0-.873-.436h-.436V78.6a1.061,1.061,0,0,1-1.047,1.047A1.139,1.139,0,0,1,409.8,78.6v-.611h-6.545V78.6a.949.949,0,0,1-.611.873.927.927,0,0,1-1.047-.087,1.074,1.074,0,0,1-.436-.873V77.9a1.669,1.669,0,0,0-1.309.349,1.568,1.568,0,0,0-.349.785v4.276h1.047V81.129H412.5v7.418c0,.262,0,.262-.262.262h-6.283v1.047h6.37a1.232,1.232,0,0,0,1.222-.873V78.947Z" transform="translate(-399.501 -75.219)" fill="#c03"/>
  </g>
</svg>
