<svg xmlns="http://www.w3.org/2000/svg" xmlns:xlink="http://www.w3.org/1999/xlink" width="25.284" height="15.202" viewBox="0 0 25.284 15.202">
  <defs>
    <clipPath id="clip-path">
      <rect id="Rettangolo_8850" data-name="Rettangolo 8850" width="25.284" height="15.202"/>
    </clipPath>
  </defs>
  <g id="Carn-abb" transform="translate(0 0)">
    <g id="Raggruppa_11445" data-name="Raggruppa 11445" transform="translate(0 0)" clip-path="url(#clip-path)">
      <path id="Tracciato_14821" data-name="Tracciato 14821" d="M16.026,12.584,8.756,3.54a.738.738,0,0,0-1.037-.113L3.187,7.07a.738.738,0,0,0-.112,1.038l7.27,9.043a.738.738,0,0,0,1.037.113l4.532-3.643a.738.738,0,0,0,.113-1.037M2.2,7.06,3.842,5.737a.511.511,0,1,0-.747-.68L.085,9.614a.512.512,0,0,0,.145.709l8.39,5.542-6.5-8.086A.512.512,0,0,1,2.2,7.06" transform="translate(0 -2.225)"/>
      <path id="Tracciato_14822" data-name="Tracciato 14822" d="M49.392,3.967H46.948a2.822,2.822,0,1,0-5.151,0H39.352a2.06,2.06,0,0,0-.942.229L41.46,7.99h7.588a.808.808,0,1,1,0,1.617H42.76l.15.187a1.624,1.624,0,0,1,.352.86h5.786a.808.808,0,1,1,0,1.617h-6.6l-3,2.412h9.946a2.072,2.072,0,0,0,2.072-2.072V6.039a2.072,2.072,0,0,0-2.072-2.072m-4.667,0H44.02a1.2,1.2,0,1,1,.705,0" transform="translate(-26.18 0)"/>
    </g>
  </g>
</svg>
