<svg xmlns="http://www.w3.org/2000/svg" xmlns:xlink="http://www.w3.org/1999/xlink" width="16.496" height="20.295" viewBox="0 0 16.496 20.295">
  <defs>
    <clipPath id="clip-path">
      <rect id="Rettangolo_8848" data-name="Rettangolo 8848" width="16.496" height="20.295" transform="translate(0 0)"/>
    </clipPath>
  </defs>
  <g id="CartReg" transform="translate(0 0)">
    <g id="Raggruppa_11441" data-name="Raggruppa 11441" transform="translate(0 0)" clip-path="url(#clip-path)">
      <path id="Tracciato_14819" data-name="Tracciato 14819" d="M4.555,13.524l-1.664.247,2.168-3.5H1.114V20.294H7.769V10.775l-2.7,4.349Zm9.05.247-1.664-.247-.519,1.6-2.7-4.349v9.519h6.656V10.273H11.437Zm.557-8.34c1.181-1.544,1.29-3.52.166-4.645-1.254-1.254-3.569-.979-5.16.612a5.029,5.029,0,0,0-.881,1.188A5.019,5.019,0,0,0,7.406,1.4C5.814-.193,3.5-.467,2.246.786a2.908,2.908,0,0,0-.757,2.528,4.544,4.544,0,0,0,.921,2.117H0V9.485H7.769V5.431h.957V9.485H16.5V5.431Zm-6.646,0H3.906c-.1-.08-.189-.163-.28-.253A3.615,3.615,0,0,1,2.565,3.165a1.852,1.852,0,0,1,.449-1.61,1.741,1.741,0,0,1,1.261-.48A3.48,3.48,0,0,1,6.637,2.167a2.938,2.938,0,0,1,.878,3.264m5.431-.253c-.09.09-.185.173-.28.253H9.057a2.939,2.939,0,0,1,.878-3.264A3.48,3.48,0,0,1,12.3,1.075a1.742,1.742,0,0,1,1.261.48c.83.83.555,2.455-.612,3.623" transform="translate(0 0)"/>
    </g>
  </g>
</svg>
