<svg id="Compl-Viaggio" xmlns="http://www.w3.org/2000/svg" xmlns:xlink="http://www.w3.org/1999/xlink" width="20.675" height="15.003" viewBox="0 0 20.675 15.003">
  <defs>
    <clipPath id="clip-path">
      <rect id="Rettangolo_8862" data-name="Rettangolo 8862" width="20.675" height="15.003" fill="none"/>
    </clipPath>
  </defs>
  <g id="Raggruppa_11472" data-name="Raggruppa 11472" transform="translate(0 0)" clip-path="url(#clip-path)">
    <path id="Tracciato_14840" data-name="Tracciato 14840" d="M9.351,10.566H5.937c-.365,0-.408-.242-.406-.531s.133-.436.451-.426c.552.017,1.106,0,1.658,0s1.138.009,1.706,0a.649.649,0,0,1,.184.021c0-.129,0-.257,0-.386a2.341,2.341,0,0,1,2.349-2.469c.047,0,.093,0,.14,0H12.9A1.825,1.825,0,0,1,14.454,5.8a3.7,3.7,0,0,0-.2-.325c.226-.076.394-.138.563-.183.338-.092.552-.279.488-.663H15.3c-.06-.361-.286-.579-.644-.509A1.617,1.617,0,0,1,12.677,2.97l0-.011a3.876,3.876,0,0,0-.225-.375,2.2,2.2,0,0,0-1.761-1.171c-.246-.005-.547,0-.547,0V.008L5.113,0V1.413s-.207-.007-.332,0a2.488,2.488,0,0,0-2.134,1.53c-.4.847-.928,1.421-1.962,1.173a.2.2,0,0,0-.047,0,.546.546,0,0,0-.616.466h0V4.61a.517.517,0,0,0,.346.644h0a.415.415,0,0,0,.071.016c.187.051.37.12.557.182a5.018,5.018,0,0,0-.55,1.39c-.125,1.832-.163,3.671-.2,5.508,0,.13.267.351.437.38a6.373,6.373,0,0,0,1.072.019c.821,0,.819,0,.826-.8,0-.158.014-.316.023-.5H9.527c0-.3,0-.608,0-.912a.571.571,0,0,1-.178.026M9.112.513H9.45V1.527H9.112ZM7.6.513l.405.928.3-.426-.353-.5h.382l.172.254L8.681.513h.368L8.7,1l.373.523h-.39l-.175-.27-.17.27H7.691l-.067-.176H7.239l-.068.176H6.825L7.267.508ZM5.97.513H6.9V.774H6.6v.747H6.264V.774H5.97Zm-2,7.644v0a.588.588,0,0,1-.645.479c-.226-.008-.451,0-.684,0s-.49.017-.733,0a.848.848,0,0,1,.083-1.693l.035,0a.849.849,0,0,1,.134.02,12.95,12.95,0,0,1,1.423.5.563.563,0,0,1,.388.7M2.7,5.487a2.142,2.142,0,0,1-.57-.169,2.59,2.59,0,0,1,.18-.529c.385-.642.789-1.271,1.184-1.91a1.558,1.558,0,0,1,1.417-.8h5.521a1.508,1.508,0,0,1,1.344.747c.435.688.869,1.378,1.291,2.073.254.417.153.586-.349.587H7.631l.006,0c-1.646,0-3.292.007-4.939-.007" transform="translate(0 0)" fill="#fff"/>
    <path id="Tracciato_14841" data-name="Tracciato 14841" d="M32.868,16.779a1.167,1.167,0,0,0-.126,0H30.658c0-.183.009-.34,0-.5a.479.479,0,0,0-.476-.483h-.01q-1.036,0-2.072,0h-.413a.47.47,0,0,0-.49.449v.534H25.119a1,1,0,0,0-1.082.9.964.964,0,0,0,0,.162c0,.75,0,1.5,0,2.249q0,1.247,0,2.494a1.2,1.2,0,0,0,.032.306,1.02,1.02,0,0,0,.219.419h.031c0,.012,0,.024,0,.036a.966.966,0,0,0,.47.258,1.264,1.264,0,0,0,.283.032h7.292a3.875,3.875,0,0,0,.632-.019,1,1,0,0,0,.821-1.054v-4.71l.006,0a1.018,1.018,0,0,0-.954-1.077m-2.55-.489v.476l0,.006h-2.79V16.3a.165.165,0,0,1,.152-.178h0a.138.138,0,0,1,.034,0h2.431a.157.157,0,0,1,.176.133.2.2,0,0,1,0,.033" transform="translate(-13.149 -8.642)" fill="#fff"/>
  </g>
</svg>
