<svg id="Hotel" xmlns="http://www.w3.org/2000/svg" xmlns:xlink="http://www.w3.org/1999/xlink" width="19.442" height="17.353" viewBox="0 0 19.442 17.353">
  <defs>
    <clipPath id="clip-path">
      <rect id="Rettangolo_8856" data-name="Rettangolo 8856" width="19.442" height="17.353"/>
    </clipPath>
  </defs>
  <g id="Raggruppa_11458" data-name="Raggruppa 11458" transform="translate(0 0)" clip-path="url(#clip-path)">
    <path id="Tracciato_14833" data-name="Tracciato 14833" d="M19.433,16.843a.321.321,0,0,0-.014-.042l0-.014a.407.407,0,0,0-.318-.246h-.009a.411.411,0,0,0-.1,0H17.764c-.044,0-.088,0-.131-.006a.278.278,0,0,1-.013-.052q0-1.324,0-2.647a.076.076,0,0,1,0-.017c0-.008.006-.016.009-.024a.468.468,0,0,1,.065-.082l.011-.011.016-.012a1.647,1.647,0,0,0,.581-.822,1.971,1.971,0,0,0,.116-.68,1.675,1.675,0,0,0,0-.181.865.865,0,0,0,0-.105.43.43,0,0,0,0-.05,2.143,2.143,0,0,0-.42-1.1.921.921,0,0,0-.58-.393l-.011,0a.975.975,0,0,0-.123-.017h-.109a.925.925,0,0,0-.208.029,1.133,1.133,0,0,0-.582.447l-.006.009-.008.011-.022.038q-.033.049-.061.1a2.347,2.347,0,0,0-.224,1.651,1.638,1.638,0,0,0,.626,1.058c.009.009.019.019.029.028.036.038.081.089.082.134,0,.858,0,1.715,0,2.573,0,.028,0,.055,0,.082s0,.024-.006.036H14.53V3.18h.38c.16,0,.32.006.479,0a.4.4,0,0,0,.393-.318.385.385,0,0,0-.17-.425.47.47,0,0,0-.224-.067c-.807,0-1.614,0-2.422,0a.81.81,0,0,0-.084.011V4.365l0,0V16.525h-.634V.823c.048,0,.094-.007.142-.007.417,0,.834,0,1.251,0a.4.4,0,0,0,.434-.373h0V.413A.386.386,0,0,0,13.712,0h-.033q-1.721,0-3.443,0H9.208Q7.487,0,5.766,0H5.733a.386.386,0,0,0-.36.411v.03a.4.4,0,0,0,.434.373c.417,0,.834,0,1.25,0,.048,0,.1,0,.143.007v15.7H6.568V4.363l0,0V2.372a.81.81,0,0,0-.084-.011c-.807,0-1.614,0-2.422,0a.473.473,0,0,0-.224.067.385.385,0,0,0-.17.425.4.4,0,0,0,.393.318c.158.009.319,0,.479,0h.38V16.522H2.658a.324.324,0,0,1-.006-.036c0-.026,0-.054,0-.081,0-.858,0-1.716,0-2.573,0-.045.046-.1.082-.134l.029-.028a1.639,1.639,0,0,0,.626-1.058,2.353,2.353,0,0,0-.225-1.651c-.018-.035-.04-.067-.061-.1l-.022-.038-.008-.011-.006-.009a1.127,1.127,0,0,0-.582-.447.925.925,0,0,0-.208-.029H2.168a.975.975,0,0,0-.123.017l-.011,0a.926.926,0,0,0-.58.393,2.15,2.15,0,0,0-.42,1.1c0,.017,0,.033,0,.05,0,.035,0,.07,0,.105,0,.061,0,.121,0,.181a1.988,1.988,0,0,0,.116.68,1.649,1.649,0,0,0,.581.822l.016.012.01.011a.429.429,0,0,1,.065.082c0,.008.006.016.008.024a.064.064,0,0,1,0,.017q.005,1.324,0,2.647a.278.278,0,0,1-.013.052c-.042,0-.086.005-.131.006H.456a.43.43,0,0,0-.1,0H.349a.406.406,0,0,0-.318.246.07.07,0,0,0-.005.014.377.377,0,0,0-.014.042A.366.366,0,0,0,0,16.906v.016a.432.432,0,0,0,0,.071.042.042,0,0,0,0,.016.344.344,0,0,0,.019.07.05.05,0,0,0,0,.014.37.37,0,0,0,.29.247.422.422,0,0,0,.157.01H18.967a.422.422,0,0,0,.157-.01.369.369,0,0,0,.29-.247s0-.009,0-.014a.44.44,0,0,0,.021-.068.061.061,0,0,1,0-.015.374.374,0,0,0,0-.072v-.015a.342.342,0,0,0-.009-.065m-8-12.7h0a.293.293,0,0,1-.042.029l-.009.006-.006,0a.325.325,0,0,1-.1.033h0c-.028,0-.057,0-.085,0H8.26a.67.67,0,0,1-.085,0h0a.325.325,0,0,1-.095-.033l-.007,0L8.06,4.17a.314.314,0,0,1-.042-.029h0A.321.321,0,0,1,7.9,3.924V3.907a.32.32,0,0,1,.24-.318A.713.713,0,0,1,8.3,3.574h2.841a.713.713,0,0,1,.158.015.319.319,0,0,1,.24.318v.016a.319.319,0,0,1-.11.217m.11,1.528a.124.124,0,0,1,0,.029.328.328,0,0,1-.076.173l0,0a.306.306,0,0,1-.036.033l-.016.013a.3.3,0,0,1-.033.02l-.028.014-.027.011-.037.011-.025,0-.041,0H8.272a.42.42,0,0,1-.086,0,.088.088,0,0,1-.025,0l-.037-.011L8.1,5.956,8.07,5.941a.275.275,0,0,1-.031-.02l-.016-.013a.342.342,0,0,1-.036-.033l0,0A.329.329,0,0,1,7.907,5.7a.175.175,0,0,0,0-.029A.331.331,0,0,1,8.051,5.4h0A.32.32,0,0,1,8.1,5.37l.016-.006.04-.012.028-.006.033,0a.341.341,0,0,1,.052,0h2.906a.337.337,0,0,1,.051,0,.217.217,0,0,1,.033,0,.117.117,0,0,1,.028.006l.04.012.016.006a.34.34,0,0,1,.048.026h0A.328.328,0,0,1,11.54,5.669ZM8.1,1.835a.321.321,0,0,1,.169-.024h2.908a.324.324,0,0,1,.339.448.331.331,0,0,1-.333.2c-.487,0-.974,0-1.46,0s-.974,0-1.461,0a.33.33,0,0,1-.332-.2A.323.323,0,0,1,8.1,1.835ZM8.056,7.157l.012-.006a.4.4,0,0,1,.041-.02l.021-.009.036-.01.03-.006.033,0H11.22l.033,0,.029.006.036.01.021.009a.366.366,0,0,1,.041.02l.009.006a.309.309,0,0,1,.149.307.326.326,0,0,1-.122.215l-.009.007a.31.31,0,0,1-.04.025l-.023.011-.033.012-.036.009-.024,0a.3.3,0,0,1-.045,0H8.238a.307.307,0,0,1-.046,0l-.024,0-.036-.009L8.1,7.722l-.023-.011a.326.326,0,0,1-.039-.025L8.028,7.68a.33.33,0,0,1-.122-.215.354.354,0,0,1,0-.042A.334.334,0,0,1,8.056,7.157Zm3.077,9.236c0,.03,0,.062,0,.093a.076.076,0,0,1-.044.042H10.5V13.451H8.949v3.077H8.364a.078.078,0,0,1-.045-.04c0-.033,0-.063,0-.093v-3.2c0-.277.118-.393.4-.393h2.021c.28,0,.4.117.4.393Zm.293-5.195a.4.4,0,0,1-.217.081c-.5,0-.991,0-1.486,0s-.989,0-1.485,0a.4.4,0,0,1-.217-.081.3.3,0,0,1-.095-.348.325.325,0,0,1,.16-.177l.013-.007.027-.01.033-.01.018,0a.312.312,0,0,1,.058,0h2.978a.314.314,0,0,1,.058,0l.018,0,.033.01.027.01.013.007a.325.325,0,0,1,.16.177.3.3,0,0,1-.1.348Zm.117-1.989a.315.315,0,0,1-.03.123l0,0a.317.317,0,0,1-.028.046l-.011.014a.252.252,0,0,1-.028.031l-.019.016-.029.022a.2.2,0,0,1-.024.013l-.033.016-.023.007a.3.3,0,0,1-.041.011l-.014,0a.3.3,0,0,1-.055,0c-.486,0-.972,0-1.457,0H9.7c-.486,0-.972,0-1.458,0a.3.3,0,0,1-.055,0l-.014,0A.3.3,0,0,1,8.132,9.5l-.023-.007-.033-.016-.024-.013a.313.313,0,0,1-.029-.022L8,9.428c-.01-.01-.019-.02-.028-.031l-.011-.014a.317.317,0,0,1-.028-.046l0,0a.321.321,0,0,1-.03-.123V9.2a.318.318,0,0,1,.188-.288L8.1,8.9l.04-.012.023-.006.033,0,.04,0h0q1.48,0,2.96,0h0l.04,0,.033,0a.088.088,0,0,1,.023.006l.04.012s.007,0,.011.005a.317.317,0,0,1,.188.288Z" transform="translate(0 0)"/>
  </g>
</svg>
