<svg id="i_infotraffico" xmlns="http://www.w3.org/2000/svg" width="13.137" height="13.137" viewBox="0 0 13.137 13.137">
  <g id="Ellipse_997" data-name="Ellipse 997" fill="none" stroke="#c03" stroke-width="1">
    <circle cx="6.568" cy="6.568" r="6.568" stroke="none"/>
    <circle cx="6.568" cy="6.568" r="6.068" fill="none"/>
  </g>
  <path id="Path_14124" data-name="Path 14124" d="M.29-11.388a.839.839,0,0,1,.263.624.869.869,0,0,1-.269.636.869.869,0,0,1-.636.269.836.836,0,0,1-.618-.269.879.879,0,0,1-.263-.636.839.839,0,0,1,.263-.624.869.869,0,0,1,.63-.257A.869.869,0,0,1,.29-11.388Zm.031,8.12h-1.37V-8.624H.321Z" transform="translate(6.915 13.35)" fill="#c03"/>
</svg>
