<svg id="icon-social-instagram" xmlns="http://www.w3.org/2000/svg" width="29" height="30" viewBox="0 0 29 30">
  <ellipse id="Ellipse_989" data-name="Ellipse 989" cx="14.5" cy="15" rx="14.5" ry="15" fill="#fff"/>
  <g id="Group_10462" data-name="Group 10462" transform="translate(6.586 7.49)">
    <path id="Path_14160" data-name="Path 14160" d="M17.151,6h-6.9A4.256,4.256,0,0,0,6,10.251v6.9A4.256,4.256,0,0,0,10.25,21.4h6.9A4.256,4.256,0,0,0,21.4,17.151v-6.9A4.256,4.256,0,0,0,17.151,6Zm2.885,11.151a2.887,2.887,0,0,1-2.885,2.885h-6.9a2.887,2.887,0,0,1-2.884-2.885v-6.9A2.887,2.887,0,0,1,10.25,7.366h6.9a2.887,2.887,0,0,1,2.885,2.885Z" transform="translate(-6 -6)" fill="#303030"/>
    <path id="Path_14161" data-name="Path 14161" d="M13.147,9.185a4.147,4.147,0,1,0,4.147,4.147A4.151,4.151,0,0,0,13.147,9.185Zm0,6.866a2.719,2.719,0,1,1,2.719-2.719,2.721,2.721,0,0,1-2.719,2.719ZM17.293,8a1.184,1.184,0,1,0,.838.346A1.189,1.189,0,0,0,17.293,8Z" transform="translate(-5.446 -5.631)" fill="#303030"/>
  </g>
</svg>
