<?xml version="1.0" encoding="utf-8"?>
<!-- Generator: Adobe Illustrator 28.3.0, SVG Export Plug-In . SVG Version: 6.00 Build 0)  -->
<svg version="1.1" id="Livello_1" xmlns="http://www.w3.org/2000/svg" xmlns:xlink="http://www.w3.org/1999/xlink" x="0px" y="0px"
	 viewBox="0 0 16.5 20.3" style="enable-background:new 0 0 16.5 20.3;" xml:space="preserve">
<style type="text/css">
	.st0{display:none;}
	.st1{display:inline;}
	.st2{fill:#FFFFFF;stroke:#000000;stroke-width:0.6472;stroke-miterlimit:10;}
	.st3{fill:none;stroke:#000000;stroke-width:0.1164;stroke-miterlimit:10;}
	.st4{clip-path:url(#SVGID_00000091697243704622743870000002713337265674453655_);}
	.st5{display:inline;fill:#FFFFFF;}
</style>
<g id="Livello_2_00000090291518979431069060000014809217915826831766_" class="st0">
	<g class="st1">
		<path class="st2" d="M61.4,13.6h-5.8c-0.7,0-1.2-0.5-1.2-1.2V8c0-0.7,0.5-1.2,1.2-1.2h5.8c0.7,0,1.2,0.5,1.2,1.2v4.4
			C62.7,13.1,62.1,13.6,61.4,13.6z"/>
		<g>
			<path d="M56.5,8.1L56.5,8.1C56.2,8.1,56,8,56,7.7V6.1c0-0.2,0.2-0.4,0.4-0.4h0.1c0.2,0,0.4,0.2,0.4,0.4v1.6
				C56.9,8,56.7,8.1,56.5,8.1z"/>
			<path d="M58.6,8.1L58.6,8.1C58.2,8.1,58,8,58,7.7V6.1c0-0.2,0.2-0.4,0.4-0.4h0.1c0.2,0,0.4,0.2,0.4,0.4v1.6
				C59,8,58.8,8.1,58.6,8.1z"/>
			<path d="M60.7,8.1L60.7,8.1c-0.3,0-0.5-0.2-0.5-0.4V6.1c0-0.2,0.2-0.4,0.4-0.4h0.1c0.2,0,0.4,0.2,0.4,0.4v1.6
				C61.1,8,60.9,8.1,60.7,8.1z"/>
		</g>
		<g>
			<path class="st3" d="M56.5,9.7H56c-0.1,0-0.2-0.1-0.2-0.2V8.9c0-0.1,0.1-0.2,0.2-0.2h0.5c0.1,0,0.2,0.1,0.2,0.2v0.6
				C56.7,9.6,56.6,9.7,56.5,9.7z"/>
			<path class="st3" d="M57.9,9.7h-0.5c-0.1,0-0.2-0.1-0.2-0.2V8.9c0-0.1,0.1-0.2,0.2-0.2h0.5c0.1,0,0.2,0.1,0.2,0.2v0.6
				C58.1,9.6,58,9.7,57.9,9.7z"/>
			<path class="st3" d="M59.4,9.7h-0.5c-0.1,0-0.2-0.1-0.2-0.2V8.9c0-0.1,0.1-0.2,0.2-0.2h0.5c0.1,0,0.2,0.1,0.2,0.2v0.6
				C59.6,9.6,59.5,9.7,59.4,9.7z"/>
			<path class="st3" d="M60.8,9.7h-0.5c-0.1,0-0.2-0.1-0.2-0.2V8.9c0-0.1,0.1-0.2,0.2-0.2h0.5c0.1,0,0.2,0.1,0.2,0.2v0.6
				C61.1,9.6,61,9.7,60.8,9.7z"/>
		</g>
		<g>
			<path class="st3" d="M56.5,11.2H56c-0.1,0-0.2-0.1-0.2-0.2v-0.6c0-0.1,0.1-0.2,0.2-0.2h0.5c0.1,0,0.2,0.1,0.2,0.2V11
				C56.7,11.1,56.6,11.2,56.5,11.2z"/>
			<path class="st3" d="M57.9,11.2h-0.5c-0.1,0-0.2-0.1-0.2-0.2v-0.6c0-0.1,0.1-0.2,0.2-0.2h0.5c0.1,0,0.2,0.1,0.2,0.2V11
				C58.1,11.1,58,11.2,57.9,11.2z"/>
			<path class="st3" d="M59.4,11.2h-0.5c-0.1,0-0.2-0.1-0.2-0.2v-0.6c0-0.1,0.1-0.2,0.2-0.2h0.5c0.1,0,0.2,0.1,0.2,0.2V11
				C59.6,11.1,59.5,11.2,59.4,11.2z"/>
			<path class="st3" d="M60.8,11.2h-0.5c-0.1,0-0.2-0.1-0.2-0.2v-0.6c0-0.1,0.1-0.2,0.2-0.2h0.5c0.1,0,0.2,0.1,0.2,0.2V11
				C61.1,11.1,61,11.2,60.8,11.2z"/>
		</g>
		<g>
			<path class="st3" d="M56.5,12.6H56c-0.1,0-0.2-0.1-0.2-0.2v-0.6c0-0.1,0.1-0.2,0.2-0.2h0.5c0.1,0,0.2,0.1,0.2,0.2v0.6
				C56.7,12.5,56.6,12.6,56.5,12.6z"/>
			<path class="st3" d="M57.9,12.6h-0.5c-0.1,0-0.2-0.1-0.2-0.2v-0.6c0-0.1,0.1-0.2,0.2-0.2h0.5c0.1,0,0.2,0.1,0.2,0.2v0.6
				C58.1,12.5,58,12.6,57.9,12.6z"/>
			<path class="st3" d="M59.4,12.6h-0.5c-0.1,0-0.2-0.1-0.2-0.2v-0.6c0-0.1,0.1-0.2,0.2-0.2h0.5c0.1,0,0.2,0.1,0.2,0.2v0.6
				C59.6,12.5,59.5,12.6,59.4,12.6z"/>
			<path class="st3" d="M60.8,12.6h-0.5c-0.1,0-0.2-0.1-0.2-0.2v-0.6c0-0.1,0.1-0.2,0.2-0.2h0.5c0.1,0,0.2,0.1,0.2,0.2v0.6
				C61.1,12.5,61,12.6,60.8,12.6z"/>
		</g>
	</g>
	<g id="CartReg" transform="translate(0 0)" class="st1">
		<g>
			<g>
				<defs>
					<rect id="SVGID_1_" x="-36.1" y="0" width="16.5" height="20.3"/>
				</defs>
				<clipPath id="SVGID_00000127726756477759024950000004755389038233771919_">
					<use xlink:href="#SVGID_1_"  style="overflow:visible;"/>
				</clipPath>
				
					<g id="Raggruppa_11441" transform="translate(0 0)" style="clip-path:url(#SVGID_00000127726756477759024950000004755389038233771919_);">
					<path id="Tracciato_14819" d="M-31.6,13.5l-1.7,0.2l2.2-3.5H-35v10h6.7v-9.5L-31,15L-31.6,13.5z M-22.5,13.8l-1.7-0.2l-0.5,1.6
						l-2.7-4.3v9.5h6.7v-10h-3.9L-22.5,13.8z M-22,5.4c1.2-1.5,1.3-3.5,0.2-4.6c-1.3-1.3-3.6-1-5.2,0.6c-0.4,0.4-0.6,0.8-0.9,1.2
						c-0.2-0.4-0.5-0.8-0.9-1.2c-1.6-1.6-3.9-1.9-5.2-0.6c-0.6,0.7-0.9,1.6-0.8,2.5c0.1,0.8,0.4,1.5,0.9,2.1h-2.4v4.1h7.8V5.4h1v4.1
						h7.8V5.4H-22z M-28.6,5.4h-3.6c-0.1-0.1-0.2-0.2-0.3-0.3c-0.6-0.5-0.9-1.2-1.1-2c-0.1-0.6,0.1-1.2,0.4-1.6
						c0.3-0.3,0.8-0.5,1.3-0.5c0.9,0,1.7,0.4,2.4,1.1C-28.5,3-28.2,4.3-28.6,5.4 M-23.2,5.2c-0.1,0.1-0.2,0.2-0.3,0.3h-3.6
						c-0.4-1.2-0.1-2.5,0.9-3.3c0.6-0.7,1.5-1,2.4-1.1c0.5,0,0.9,0.2,1.3,0.5C-21.7,2.4-22,4-23.2,5.2"/>
				</g>
			</g>
		</g>
	</g>
	<path class="st1" d="M1-6.2h10.7c0.6,0,1.1,0.2,1.6,0.5L15-4.4c0.8,0.6,0.4,1.9-0.6,1.9H1"/>
	<path class="st5" d="M10.8-5.3H0.2c-0.3,0-0.5,0.2-0.5,0.5l0,0c0,0.3,0.2,0.5,0.5,0.5h10.6c0.3,0,0.5-0.2,0.5-0.5l0,0
		C11.3-5.1,11.1-5.3,10.8-5.3z"/>
</g>
<path d="M4.8,6.1C4.9,6.1,4.9,6.2,5,6.3C5,6.3,5.1,6.4,5.1,6.4C5.4,6.6,5.7,6.7,6,6.7c0,0,0.1,0,0.1,0c0.1,0,0.1,0,0.2,0
	c0.3,0,0.6-0.1,0.8-0.3c0.1,0,0.1-0.1,0.2-0.1c0.1-0.1,0.1-0.1,0.2-0.2c0.2-0.3,0.4-0.6,0.4-1c0-0.5-0.2-1-0.6-1.3
	C7,3.6,6.8,3.4,6.5,3.4c-0.1,0-0.2,0-0.3,0c-0.1,0-0.2,0-0.2,0c-0.3,0-0.6,0.2-0.8,0.4C4.7,4,4.4,4.5,4.4,5C4.4,5.4,4.6,5.8,4.8,6.1
	z M8.1,2.9C8.3,3.1,8.7,3.3,9,3.3c0.4,0,0.7-0.1,0.9-0.4c0.1-0.1,0.1-0.1,0.2-0.2c0.1-0.2,0.2-0.5,0.2-0.7c0-0.7-0.6-1.3-1.3-1.3
	c-0.7,0-1.3,0.6-1.3,1.3c0,0.3,0.1,0.5,0.2,0.7C8,2.7,8,2.8,8.1,2.9z M8.4,5c0,0.4-0.1,0.7-0.3,1h3c0.3,0,0.6-0.3,0.6-0.6
	c0-0.9-0.5-1.6-1.2-1.9c0,0,0,0,0,0C10.2,3.4,10,3.5,9.8,3.6C9.5,3.7,9.3,3.8,9,3.8c-0.3,0-0.5-0.1-0.7-0.2C8.1,3.5,7.9,3.5,7.7,3.5
	c0,0-0.1,0-0.1,0c0,0,0,0,0,0C7.7,3.6,7.8,3.7,8,3.8C8.2,4.1,8.4,4.6,8.4,5z M2.5,2.9C2.7,3.1,3,3.3,3.4,3.3c0.4,0,0.7-0.1,0.9-0.4
	c0.1-0.1,0.1-0.1,0.2-0.2c0.1-0.2,0.2-0.5,0.2-0.7c0-0.7-0.6-1.3-1.3-1.3C2.6,0.6,2,1.2,2,1.9c0,0.3,0.1,0.5,0.2,0.7
	C2.3,2.7,2.4,2.8,2.5,2.9z M15.9,15.5l-1.6-4.4c-0.2-0.5-0.6-0.8-1.1-0.8l-0.6-1.1c-0.2-0.3-0.4-0.5-0.7-0.6c-0.3-0.1-0.7-0.1-1,0.1
	L10,9.1l0,0l0,0.2c0,0.5-0.2,1-0.7,1.2c-0.5,0.2-1,0.2-1.4-0.1l-0.1-0.1h1c0.4,0,0.8-0.4,0.8-0.8c0-1.1-0.7-2.1-1.6-2.5
	C7.6,7,7.3,7,7.1,7.1c-0.3,0.2-0.6,0.3-1,0.3c-0.4,0-0.7-0.1-1-0.3C4.9,7,4.6,6.9,4.4,7.1c-1,0.4-1.6,1.4-1.6,2.5
	c0,0.4,0.3,0.8,0.8,0.8h4.2l-1.1,0.6l-3.7,2c-0.3,0.2-0.5,0.4-0.6,0.7c-0.1,0.3-0.1,0.7,0.1,1l2.2,4.1c0.1,0.2,0.2,0.3,0.3,0.4
	l0.1,0.4c0.2,0.5,0.7,0.8,1.2,0.8c0.1,0,0.3,0,0.4-0.1l5.2-1.9l0-0.2c0-0.5,0.4-1,0.9-1.1c0.5-0.2,1-0.1,1.4,0.3l0.1,0.1l1-0.3
	c0.3-0.1,0.6-0.3,0.7-0.6C16,16.1,16,15.8,15.9,15.5z M3.3,15.1l0.2,0.4l-0.7-1.3c-0.1-0.1-0.1-0.3,0-0.5s0.2-0.3,0.3-0.4l4.6-2.4
	c0.6,0.4,1.3,0.4,1.9,0.1c0.6-0.3,1-0.9,1-1.6l0.6-0.3c0.3-0.2,0.7,0,0.8,0.3l0.5,1l-0.8,0.3l0,0.2c0,0.5-0.4,1-0.9,1.1
	c-0.5,0.2-1,0.1-1.4-0.3l-0.1-0.1l-5.2,1.9C3.4,13.7,3.1,14.5,3.3,15.1z M15.3,16.2c-0.1,0.2-0.2,0.3-0.4,0.3l-0.6,0.2
	c-0.5-0.4-1.3-0.6-1.9-0.3c-0.6,0.2-1.1,0.8-1.2,1.5l-4.8,1.8c-0.3,0.1-0.6,0-0.7-0.3c0,0-0.1-0.1-0.1-0.1L5.4,19l-0.1-0.3l-1.4-3.8
	c-0.1-0.3,0-0.7,0.4-0.8l4.8-1.8c0.5,0.4,1.3,0.6,1.9,0.3c0.6-0.2,1.1-0.8,1.2-1.5l0.5-0.2l0.1,0c0.1,0,0.2,0,0.3,0l1.2,2.4l0.2,0.5
	l0.2,0.6l0.5,1.4C15.3,15.9,15.3,16,15.3,16.2z M3.9,5c0-0.4,0.1-0.8,0.3-1.2c0.1-0.1,0.2-0.3,0.3-0.4c-0.1,0-0.3,0-0.4,0.1
	C3.9,3.7,3.6,3.8,3.4,3.8c-0.3,0-0.5-0.1-0.7-0.2C2.4,3.5,2.2,3.4,2,3.5c0,0,0,0,0,0C1.2,3.9,0.7,4.6,0.7,5.5c0,0.3,0.3,0.6,0.6,0.6
	h2.9C4,5.8,3.9,5.4,3.9,5z"/>
</svg>
