<?xml version="1.0" encoding="utf-8"?>
<!-- Generator: Adobe Illustrator 28.3.0, SVG Export Plug-In . SVG Version: 6.00 Build 0)  -->
<svg version="1.1" id="Livello_1" xmlns="http://www.w3.org/2000/svg" xmlns:xlink="http://www.w3.org/1999/xlink" x="0px" y="0px"
	 viewBox="0 0 16.5 20.3" style="enable-background:new 0 0 16.5 20.3;" xml:space="preserve">
<path d="M11.1,8.9H9.5V7.2c0-0.6-0.5-1.1-1.1-1.1c-0.6,0-1.1,0.5-1.1,1.1v1.6H5.6C5,8.9,4.5,9.4,4.5,10s0.5,1.1,1.1,1.1h1.6v1.6
	c0,0.6,0.5,1.1,1.1,1.1c0.6,0,1.1-0.5,1.1-1.1v-1.6h1.6c0.6,0,1.1-0.5,1.1-1.1S11.7,8.9,11.1,8.9z"/>
<path d="M15.5,2.7l-1.9-1.4c-0.5-0.4-1.1-0.6-1.7-0.6H0.5v1H11c0.3,0,0.5,0.2,0.5,0.5c0,0.3-0.2,0.5-0.5,0.5H0.5v2h14.3
	C15.9,4.7,16.4,3.3,15.5,2.7z"/>
<path d="M15.5,17.3l-1.9-1.4c-0.5-0.4-1.1-0.6-1.7-0.6H0.5v1H11c0.3,0,0.5,0.2,0.5,0.5c0,0.3-0.2,0.5-0.5,0.5H0.5v2h14.3
	C15.9,19.3,16.4,17.9,15.5,17.3z"/>
</svg>
