<svg id="linkedin" xmlns="http://www.w3.org/2000/svg" width="29" height="30" viewBox="0 0 29 30">
  <ellipse id="Oval-3" cx="14.5" cy="15" rx="14.5" ry="15" fill="#fff"/>
  <g id="_001-linkedin" data-name="001-linkedin" transform="translate(7.209 7.082)">
    <path id="Shape" d="M15.4,8.906v5.311H11.909V9.262c0-1.244-.5-2.094-1.769-2.094A1.9,1.9,0,0,0,8.348,8.294a1.877,1.877,0,0,0-.116.75v5.172H4.739s.047-8.392,0-9.26H8.233V6.269c-.007.01-.017.02-.023.03h.023v-.03a3.563,3.563,0,0,1,3.148-1.53C13.679,4.739,15.4,6.063,15.4,8.906ZM1.788,0A1.71,1.71,0,0,0,0,1.777,1.7,1.7,0,0,0,1.746,3.554h.021A1.71,1.71,0,0,0,3.554,1.777,1.7,1.7,0,0,0,1.788,0ZM0,14.217H3.554V4.739H0Z" fill="#303030"/>
  </g>
</svg>
