<svg id="Nolegg-Auto" xmlns="http://www.w3.org/2000/svg" xmlns:xlink="http://www.w3.org/1999/xlink" width="25.731" height="19.313" viewBox="0 0 25.731 19.313">
  <defs>
    <clipPath id="clip-path">
      <rect id="Rettangolo_8855" data-name="Rettangolo 8855" width="25.731" height="19.313" transform="translate(0 0)"/>
    </clipPath>
  </defs>
  <g id="Raggruppa_11456" data-name="Raggruppa 11456" transform="translate(0 0)" clip-path="url(#clip-path)">
    <path id="Tracciato_14829" data-name="Tracciato 14829" d="M25.7,30.823c-.07-.715-.213-1.422-.32-2.133a6.528,6.528,0,0,0-2.468-4.632.719.719,0,0,1-.251-.447c-.034-.262-.132-.424-.391-.472a11.07,11.07,0,0,0-1.5-.262c-1.68-.077-3.361-.137-5.042-.15a16.245,16.245,0,0,0-3.408.147,18.14,18.14,0,0,0-6.7,3.283,3.557,3.557,0,0,1-.7.4Q3.117,27.3,1.295,28a1.4,1.4,0,0,0-.854.919,7.667,7.667,0,0,0-.4,3.323c.1.921.344,1.1,1.3.942a3.84,3.84,0,0,1,.439-2.325,2.614,2.614,0,0,1,2.1-1.131,2.836,2.836,0,0,1,1.815.528A3.074,3.074,0,0,1,6.7,33.207h13a3.179,3.179,0,0,1,.45-2.393,2.786,2.786,0,0,1,2.118-1.106,2.881,2.881,0,0,1,2.839,3.207,2.6,2.6,0,0,0,.589-2.092M.35,30.174c-.15-1.191,1.918-2.658,3.491-2.482A14.858,14.858,0,0,1,.348,30.173Zm14.793-6.4c-.181.94-.37,1.88-.525,2.827-.053.328-.269.364-.507.385q-2.262.2-4.524.387c-.328.027-.659.032-.988.048l0,.059c-.686-.053-1.374-.087-2.056-.166-.168-.019-.442-.176-.448-.284a.707.707,0,0,1,.272-.506A12.641,12.641,0,0,1,10.8,24.3c1.325-.357,2.691-.565,4.037-.843.272-.058.36.039.308.308Zm6.513.695c-.009.029-.019.057-.025.086-.323,1.443-.476,1.571-1.942,1.748-1.275.154-2.546.331-3.843.5V23.358c1.164.092,2.3.153,3.42.28.711.079,1.41.267,2.117.389.277.047.349.185.271.436Z" transform="translate(0 -15.346)"/>
    <path id="Tracciato_14830" data-name="Tracciato 14830" d="M7.756,45.715H7.737a2.247,2.247,0,1,0,.019,0m-.01,3.807h0A1.56,1.56,0,0,1,6.176,48v-.044a1.577,1.577,0,0,1,3.152-.086c0,.01,0,.019,0,.029A1.612,1.612,0,0,1,7.747,49.522Z" transform="translate(-3.717 -30.895)"/>
    <path id="Tracciato_14831" data-name="Tracciato 14831" d="M64.257,45.692a2.232,2.232,0,0,0-2.207,2.255c0,.054,0,.107,0,.162a2.193,2.193,0,0,0,2.3,2.081,2.219,2.219,0,0,0,2.189-2.223,2.376,2.376,0,0,0-2.283-2.275m.049,3.817h-.1a1.542,1.542,0,0,1-1.489-1.594h0V47.9a1.571,1.571,0,1,1,1.589,1.605Z" transform="translate(-41.935 -30.879)"/>
    <path id="Tracciato_14832" data-name="Tracciato 14832" d="M29.6,0A4.159,4.159,0,0,1,31.53,1.388c.089.125.375.15.57.152,1.382.012,4.147,0,4.147,0L38.54,3.073,36.85,4.7l-.857-1.062-.985,1.232-1.019-1.3-.627.611-.545-.531-.778,1.11a1.732,1.732,0,0,0-.627.284A3.131,3.131,0,0,1,25.77,3.089C25.776,1.693,26.546,0,29.6,0M27.861,2.265a.875.875,0,0,0-.027,1.751.833.833,0,0,0,.885-.778.788.788,0,0,0,0-.083.84.84,0,0,0-.789-.889c-.023,0-.047,0-.07,0" transform="translate(-17.415 0)"/>
  </g>
</svg>
