<svg xmlns="http://www.w3.org/2000/svg" xmlns:xlink="http://www.w3.org/1999/xlink" width="27.293" height="14.27" viewBox="0 0 27.293 14.27">
  <defs>
    <clipPath id="clip-path">
      <rect id="Rettangolo_8852" data-name="Rettangolo 8852" width="27.293" height="14.27"/>
    </clipPath>
  </defs>
  <g id="PromoReg" transform="translate(0 0)">
    <g id="Raggruppa_11449" data-name="Raggruppa 11449" transform="translate(0 0)" clip-path="url(#clip-path)">
      <path id="Tracciato_14824" data-name="Tracciato 14824" d="M59.7,18.763h-.265c-.045-.071-.134-.1-.193-.157-.033-.029-.048-.077-.081-.106a2.275,2.275,0,0,1-.276-.517c-.092-.181-.142-.379-.238-.559-.1-.195-.166-.407-.271-.6-.047-.078-.055-.185-.117-.247-.205-.188-.561-.113-.763-.32-.055-.031-.145-.2-.2-.153a2.224,2.224,0,0,1-.324.1.985.985,0,0,1-.487.078,1.4,1.4,0,0,1-.783-.407c-.069-.075-.149-.142-.212-.222a1.867,1.867,0,0,1-.18-.319.6.6,0,0,1-.05-.213.725.725,0,0,1-.033-.312,1.314,1.314,0,0,1,.25-.866,1.335,1.335,0,0,1,.721-.418,15.5,15.5,0,0,0,1.821-.927,7.385,7.385,0,0,0,1.663-1.287,3.313,3.313,0,0,0,.441-.5,3.9,3.9,0,0,0,.507-.924,5.335,5.335,0,0,0,.267-.929,2.459,2.459,0,0,1,.194-.646.659.659,0,0,1,.625-.412.809.809,0,0,1,.4.1,2.228,2.228,0,0,1,.381.249,2.544,2.544,0,0,1,.424.364c.107.1.178.227.278.331a1.874,1.874,0,0,1,.275.326c.107.165.239.311.344.476.173.268.326.548.491.822.218.407.4.83.584,1.252a7.011,7.011,0,0,1,.248.718,2.274,2.274,0,0,1,.128.388,8.682,8.682,0,0,1,.229,1.048,1.466,1.466,0,0,1,.059.4c-.014.035.014.061.043.075V15.48c-.064-.011-.042.127-.056.169-.059.3-.206.652-.531.726-.4.107-.756-.158-1.09-.347-.148-.078-.285-.173-.427-.259-.206-.1-.414-.2-.623-.291a4.112,4.112,0,0,0-.868-.23,2.732,2.732,0,0,0-.58-.057,2.506,2.506,0,0,0-.542.02c-.331.016-.791.049-.89.438a1.069,1.069,0,0,0,.146.558c.123.27.228.547.365.81.055.1.079.233.171.306.142.153.459.224.5.443a.383.383,0,0,0,.034.131.2.2,0,0,0-.02.043c-.027.359-.464.391-.728.506-.166.059-.321.143-.492.19a.555.555,0,0,0-.262.127m4.783-4.94a10.065,10.065,0,0,0-.415-1.517,11.742,11.742,0,0,0-.76-1.54c-.228-.338-.467-.667-.724-.983a2.332,2.332,0,0,1-.263-.29,1.1,1.1,0,0,1-.189-.147c-.062-.05-.138-.142-.214-.153-.151.041-.154.381-.157.514,0,.082,0,.165,0,.247-.013.124.039.241.035.366a3.02,3.02,0,0,0,.069.588,1.935,1.935,0,0,0,.071.345,1.742,1.742,0,0,0,.115.421,7.292,7.292,0,0,0,.473,1.23,5.983,5.983,0,0,0,1.226,1.754,2.26,2.26,0,0,0,.625.48c.2.105.16-.538.172-.643.011-.229-.065-.438-.059-.672" transform="translate(-38.3 -5.48)"/>
      <path id="Tracciato_14825" data-name="Tracciato 14825" d="M5.071,6.272,5.947,2.3H1.231c.18-.749.356-1.481.537-2.211.009-.036.066-.068.108-.085A.356.356,0,0,1,2,0C5.439,0,8.879,0,12.32.008a7.873,7.873,0,0,1,2.659.414,2.84,2.84,0,0,1,1.942,2.237,4.773,4.773,0,0,1-.106,2.547,4.074,4.074,0,0,1-1.848,2.157l-.207.125c.074.091.147.174.213.262a3.059,3.059,0,0,1,.561,1.56,16.158,16.158,0,0,1-.059,2.542,2.652,2.652,0,0,0,.123,1.115.68.68,0,0,0,.134.266.672.672,0,0,1,.159.781,2.425,2.425,0,0,0-.048.255H15.4c-.679,0-1.357,0-2.036,0-.1,0-.166-.014-.187-.129a8.755,8.755,0,0,1-.213-1.214c-.019-.545.057-1.092.079-1.639.017-.435.038-.873.012-1.307a1.35,1.35,0,0,0-1.234-1.405,6.605,6.605,0,0,0-1.158-.108c-1.127-.014-2.254,0-3.4,0-.074.319-.148.637-.22.956q-.533,2.359-1.068,4.718c-.011.051-.08.126-.122.126-.861.007-1.722.006-2.6.006L4.53,8.576H0l.559-2.3Zm2.683-.151c.054,0,.089.008.123.008,1.062,0,2.125.015,3.186-.007a7.707,7.707,0,0,0,1.455-.147,2.066,2.066,0,0,0,1.812-2.47,1.224,1.224,0,0,0-1.022-1.1,5.169,5.169,0,0,0-.894-.1C11.175,2.3,9.936,2.3,8.7,2.3c-.029,0-.058,0-.1.008l-.84,3.812" transform="translate(0.001 0)"/>
    </g>
  </g>
</svg>
