<svg xmlns="http://www.w3.org/2000/svg" width="25.605" height="15.623" viewBox="0 0 25.605 15.623">
  <g id="Ric-avanz" transform="translate(-168.49 -696.627)">
    <g id="utlime_ricerche" transform="translate(171.789 694.703)">
      <g id="Raggruppa_10777" data-name="Raggruppa 10777" transform="translate(7.214 1.924)">
        <g id="Tracciato_14198" data-name="Tracciato 14198" transform="translate(1.448 0) rotate(8)" fill="none">
          <path d="M5.184,0A5.2,5.2,0,1,1,0,5.2,5.2,5.2,0,0,1,5.184,0Z" stroke="none"/>
          <path d="M 5.180974006652832 1.999997138977051 C 4.331443786621094 1.999997138977051 3.532893657684326 2.33173656463623 2.932443618774414 2.934116840362549 C 2.330583572387695 3.537906646728516 1.999444007873535 4.341396808624268 2.000003814697266 5.196567058563232 C 2.001163482666016 6.963236808776855 3.433373928070068 8.401466369628906 5.19481372833252 8.402626991271973 C 6.044343948364258 8.402626991271973 6.842884063720703 8.070886611938477 7.443333625793457 7.468506813049316 C 8.045184135437012 6.864727020263672 8.376323699951172 6.06123685836792 8.375763893127441 5.206066608428955 C 8.374603271484375 3.439396858215332 6.942393779754639 2.001167297363281 5.184463977813721 1.999997138977051 L 5.180974006652832 1.999997138977051 M 5.180975914001465 -4.76837158203125e-06 C 5.182199954986572 -4.76837158203125e-06 5.183239936828613 -3.814697265625e-06 5.184463977813721 -2.86102294921875e-06 C 8.049654006958008 0.001896858215332031 10.37387371063232 2.332137107849121 10.37576389312744 5.204746723175049 C 10.37765407562256 8.077356338500977 8.05562686920166 10.40452671051025 5.191303730010986 10.40262699127197 C 2.326113700866699 10.40073680877686 0.001893997192382812 8.070496559143066 3.814697265625e-06 5.197886943817139 C -0.001885414123535156 2.326503753662109 2.317475318908691 -4.76837158203125e-06 5.180975914001465 -4.76837158203125e-06 Z" stroke="none" fill="#fff"/>
        </g>
        <path id="Tracciato_14197" data-name="Tracciato 14197" d="M0,0,3.667,1.913" transform="translate(9.937 8.489) rotate(8)" fill="none" stroke="#fff" stroke-linecap="round" stroke-width="2"/>
      </g>
    </g>
    <line id="Linea_1114" data-name="Linea 1114" x1="6.255" transform="translate(169.24 703.5)" fill="none" stroke="#fff" stroke-linecap="round" stroke-width="1.5"/>
    <line id="Linea_1115" data-name="Linea 1115" x1="7" transform="translate(169.24 707.5)" fill="none" stroke="#fff" stroke-linecap="round" stroke-width="1.5"/>
    <line id="Linea_1116" data-name="Linea 1116" x1="13.26" transform="translate(169.24 711.5)" fill="none" stroke="#fff" stroke-linecap="round" stroke-width="1.5"/>
  </g>
</svg>
