<svg id="Sharing" xmlns="http://www.w3.org/2000/svg" xmlns:xlink="http://www.w3.org/1999/xlink" width="15.996" height="21.687" viewBox="0 0 15.996 21.687">
  <defs>
    <clipPath id="clip-path">
      <rect id="Rettangolo_8865" data-name="Rettangolo 8865" width="15.996" height="21.687" fill="none"/>
    </clipPath>
  </defs>
  <g id="Raggruppa_11482" data-name="Raggruppa 11482" clip-path="url(#clip-path)">
    <path id="Tracciato_14842" data-name="Tracciato 14842" d="M8.726,14.271a7.49,7.49,0,0,0-1.488-.026,1.707,1.707,0,0,0-1.594,1.729v2.084c0,.664.023,1.33-.006,1.993a1.5,1.5,0,0,0,1.24,1.573,7.858,7.858,0,0,0,1.949.006,1.458,1.458,0,0,0,1.279-1.445q.007-2.084,0-4.167A1.725,1.725,0,0,0,8.725,14.27M4.034,1.841H0V3.176H4.034Zm7.937,1.347H16V1.828H11.971Zm-.309,1.731a4.264,4.264,0,0,0-1.122-.2c-.468-.033-.94-.008-1.453-.008A2.559,2.559,0,0,0,9.678.8,2.492,2.492,0,0,0,6.157.661L6.133.684A2.409,2.409,0,0,0,5.345,2.5,2.542,2.542,0,0,0,6.635,4.714c-.42,0-.763,0-1.107,0a3.97,3.97,0,0,0-.563.027A2.833,2.833,0,0,0,2.554,7.559c-.005,3.067-.011,6.134.01,9.2a2.948,2.948,0,0,0,.258,1.155,2.733,2.733,0,0,0,2.158,1.624v-.292c0-1.315,0-2.629,0-3.943a2.235,2.235,0,0,1,1.76-2.293,7.318,7.318,0,0,1,1.374-.058,4.142,4.142,0,0,1,.9.053,2.238,2.238,0,0,1,1.74,2.173c.008,1.11,0,2.221,0,3.331v1.035c.05,0,.073.008.095.008a2.828,2.828,0,0,0,2.61-2.671q.017-4.691,0-9.383a2.774,2.774,0,0,0-1.8-2.579M5.915,2.511A1.953,1.953,0,0,1,7.861.574,1.923,1.923,0,1,1,5.915,2.511m5.1,7.78H4.707V7.366h6.31Z" transform="translate(0 -0.001)"/>
  </g>
</svg>
