<svg xmlns="http://www.w3.org/2000/svg" xmlns:xlink="http://www.w3.org/1999/xlink" width="19.002" height="15.867" viewBox="0 0 19.002 15.867">
  <defs>
    <clipPath id="clip-path">
      <rect id="Rettangolo_8853" data-name="Rettangolo 8853" width="19.002" height="15.867" transform="translate(0)"/>
    </clipPath>
  </defs>
  <g id="Taxi" transform="translate(-0.029)">
    <g id="Raggruppa_11452" data-name="Raggruppa 11452" transform="translate(0.029 0)" clip-path="url(#clip-path)">
      <path id="Tracciato_14827" data-name="Tracciato 14827" d="M9.234,1.071l-.122.316h.244ZM19,5.771c-.074-.449-.355-.719-.8-.632a2.009,2.009,0,0,1-2.456-1.446,4.723,4.723,0,0,0-.283-.466,2.735,2.735,0,0,0-2.182-1.454.675.675,0,0,1-.641-.509c-.069-.189-.187-.36-.256-.549A.96.96,0,0,0,11.314.028,22.1,22.1,0,0,1,8.4.018,1.657,1.657,0,0,0,6.354,1.295c-.049.173-.258.411-.412.427A3.15,3.15,0,0,0,3.292,3.678C2.8,4.726,2.14,5.438.855,5.13a.33.33,0,0,0-.059,0,.678.678,0,0,0-.765.58c0,.011,0,.022,0,.033a.643.643,0,0,0,.432.8.6.6,0,0,0,.088.02c.232.063.459.148.692.225A6.245,6.245,0,0,0,.553,8.514C.405,10.79.358,13.074.318,15.355c0,.161.332.436.541.472a7.9,7.9,0,0,0,1.332.024c1.019,0,1.018,0,1.026-.995,0-.2.017-.392.028-.614H15.8c0,.326.017.608,0,.887-.038.51.155.755.695.727s1.052-.019,1.578,0c.47.016.662-.205.659-.656-.005-1.032.012-2.064,0-3.1-.026-1.807.143-3.654-1.037-5.282.284-.093.488-.17.7-.227.425-.114.685-.347.606-.823M11.32.655h.423V1.91H11.32Zm-1.875,0,.5,1.151.379-.529L9.889.655h.474l.214.316.207-.316h.457l-.436.606.463.649h-.484l-.217-.335-.212.335h-.8l-.084-.219H8.995L8.91,1.91h-.43L9.029.655Zm-2.034,0H8.57V.983H8.2V1.91H7.779V.983H7.411ZM4.936,10.144a.732.732,0,0,1-.8.595c-.283-.01-.566,0-.849,0v0c-.3,0-.608.021-.91,0a1.052,1.052,0,0,1,.147-2.1,1.084,1.084,0,0,1,.166.025,16.006,16.006,0,0,1,1.768.62.7.7,0,0,1,.479.869m6.682,3q-2.119,0-4.239,0c-.454,0-.507-.3-.5-.659,0-.378.165-.541.556-.529.686.02,1.372.006,2.059.006.707,0,1.413.011,2.119,0,.4-.008.535.17.533.549s-.085.639-.526.638m-2.129-6.3c-2.044,0-4.088.008-6.134-.009a2.648,2.648,0,0,1-.707-.21,3.227,3.227,0,0,1,.224-.656c.478-.8.985-1.579,1.471-2.372A1.935,1.935,0,0,1,6.1,2.6q3.431,0,6.862,0a1.872,1.872,0,0,1,1.67.928c.541.855,1.078,1.712,1.6,2.576.315.518.191.728-.434.73-2.105.006-4.211,0-6.316,0M16.7,10.723a9.554,9.554,0,0,1-.971.006v.007a2.758,2.758,0,0,1-.9-.021,1.2,1.2,0,0,1-.71-.585.875.875,0,0,1,.352-.779,10.081,10.081,0,0,1,1.986-.721,1.053,1.053,0,0,1,1.155.925,1.078,1.078,0,0,1-.911,1.166" transform="translate(-0.008 0)"/>
    </g>
  </g>
</svg>
