<svg id="youtube" xmlns="http://www.w3.org/2000/svg" width="30" height="30" viewBox="0 0 30 30">
  <circle id="Oval-3" cx="15" cy="15" r="15" fill="#fff"/>
  <g id="_003-youtube-symbol" data-name="003-youtube-symbol" transform="translate(6.305 9.267)">
    <path id="Shape" d="M17.464,1.906A2.211,2.211,0,0,0,15.543.235,62.416,62.416,0,0,0,8.888,0,62.426,62.426,0,0,0,2.233.235a2.211,2.211,0,0,0-1.92,1.67A17.429,17.429,0,0,0,0,5.924,17.424,17.424,0,0,0,.31,9.941a2.21,2.21,0,0,0,1.92,1.67,62.376,62.376,0,0,0,6.655.235,62.362,62.362,0,0,0,6.654-.235,2.211,2.211,0,0,0,1.921-1.67,17.411,17.411,0,0,0,.311-4.018A17.424,17.424,0,0,0,17.464,1.906ZM6.592,8.562V2.941l5.65,2.819Z" transform="translate(0 0)" fill="#303030"/>
  </g>
</svg>
